<svg width="598" height="335" viewBox="0 0 598 335" fill="none" xmlns="http://www.w3.org/2000/svg">
<rect width="597.5" height="335" fill="#BD482D"/>
<g clip-path="url(#clip0_6518_1236)">
<path d="M365.191 167.037C364.575 167.16 364.123 167.118 363.877 166.425C363.753 166.098 363.304 165.854 362.975 165.73C362.401 165.526 361.743 165.444 361.169 165.282C359.2 164.751 358.01 163.444 358.01 161.77V120.431C358.01 119.328 358.462 118.389 359.405 117.898C360.391 117.407 361.497 117.08 362.564 116.755C363.261 116.551 364.123 116.551 364.083 115.569C364.042 114.547 363.097 114.671 362.44 114.547C362.318 114.507 362.154 114.547 362.03 114.547C359.895 114.628 357.72 114.792 355.587 114.834C352.59 114.875 349.596 114.875 346.599 114.834C344.67 114.794 342.7 114.711 340.771 114.63C340.197 114.63 339.581 114.507 339.047 114.63C338.719 114.753 338.185 115.242 338.225 115.529C338.266 115.937 338.677 116.428 339.047 116.591C339.62 116.836 340.36 116.836 341.017 117.04C343.397 117.734 344.3 118.96 344.3 121.41V160.827C344.3 163.115 342.905 164.83 340.649 165.32C340.073 165.444 339.5 165.484 338.965 165.728C338.638 165.892 338.187 166.383 338.227 166.627C338.309 166.995 338.719 167.322 339.089 167.526C339.295 167.649 339.705 167.566 339.992 167.566C342.208 167.526 344.383 167.443 346.558 167.403C346.888 167.403 347.544 167.69 347.544 167.811C347.42 169.117 348.366 169.2 349.228 169.404C349.638 169.527 350.09 169.608 350.5 169.772C353.21 170.751 355.467 172.916 355.384 176.39C355.219 182.517 355.384 188.685 355.302 194.853C355.262 197.834 355.016 200.817 354.111 203.717C352.265 209.518 348.776 213.399 342.415 214.052C337.737 214.5 333.962 212.949 331.211 209.11C328.42 205.23 327.601 200.736 327.477 196.162C327.271 188.645 327.436 181.13 327.436 173.615C327.436 171.694 328.379 170.47 330.187 169.856C330.925 169.612 331.665 169.529 332.362 169.244C332.732 169.081 333.224 168.796 333.389 168.427C333.675 167.732 334.086 167.568 334.742 167.609C335.153 167.649 335.604 167.609 336.056 167.609C336.629 167.609 337.288 167.568 337.369 166.791C337.45 165.973 336.836 165.852 336.18 165.728C333.061 165.074 330.721 163.4 329.245 160.54C327.399 156.986 325.551 153.433 323.665 149.879C319.397 141.75 315.128 133.621 310.82 125.494C309.466 122.921 308.153 120.348 306.594 117.896C305.034 115.404 302.654 114.138 299.618 114.138C295.146 114.178 290.673 114.138 286.198 114.138C285.912 114.138 285.623 114.097 285.377 114.178C285.09 114.342 284.68 114.546 284.639 114.79C284.556 115.077 284.68 115.525 284.885 115.77C285.09 116.014 285.501 116.097 285.869 116.178C288.988 116.913 291.614 118.343 293.255 121.202C295.471 125.082 297.646 128.964 299.781 132.884C299.986 133.332 300.108 134.027 299.905 134.477C298.016 138.807 296.211 143.137 294.119 147.344C292.108 151.47 289.441 155.186 285.788 158.086C282.71 160.496 279.305 161.191 275.57 160.088C272.573 159.189 270.276 157.228 268.141 155.105C264.899 151.838 262.315 148.12 260.221 143.996C259.235 142.117 259.564 140.524 261.288 139.258C262.437 138.399 263.628 137.583 264.817 136.765C267.895 134.641 270.317 132.027 271.876 128.596C274.051 123.898 272.943 118.098 269.249 115.281C265.474 112.421 261.164 112.013 256.692 112.952C253.038 113.728 250.084 115.771 247.582 118.385C245.406 120.631 243.558 123.206 241.59 125.615C241.426 125.819 241.22 126.023 241.058 126.227C240.976 126.227 240.893 126.187 240.812 126.146C240.812 124.593 240.852 123.042 240.812 121.489C240.771 119.528 240.114 117.854 238.555 116.547C237.282 115.525 235.806 115.077 234.206 115.036C230.145 114.955 226.121 114.913 222.1 114.832C221.935 114.832 221.73 114.792 221.608 114.873C221.321 115.077 220.829 115.321 220.829 115.608C220.789 115.935 221.075 116.383 221.362 116.67C221.608 116.874 222.019 116.874 222.348 116.957C225.507 117.692 227.929 120.592 227.929 123.82V161.071C227.929 163.032 226.985 164.299 225.221 164.993C224.277 165.361 223.21 165.565 222.183 165.811C221.405 165.975 221.157 166.546 221.443 167.078C221.608 167.405 222.305 167.649 222.757 167.649C227.435 167.609 232.114 167.486 236.79 167.486C239.704 167.486 242.578 167.609 245.49 167.69C246.106 167.73 246.638 167.526 246.722 166.791C246.803 166.056 246.27 165.892 245.695 165.769C244.792 165.524 243.808 165.32 242.987 164.911C241.387 164.093 241.017 162.622 241.017 160.948C241.058 152.902 241.058 144.813 241.017 136.767C240.976 134.889 241.141 133.132 242.166 131.498C242.536 130.844 242.863 130.151 243.274 129.537C245.203 126.556 247.541 123.981 250.865 122.47C253.04 121.531 255.051 121.816 256.816 123.329C260.672 126.679 261.207 132.805 257.883 136.686C256.651 138.116 255.134 139.3 253.656 140.526C252.424 141.548 251.072 142.404 249.8 143.386C247.543 145.143 247.092 146.817 248.527 149.267C250.005 151.84 251.646 154.291 253.37 156.701C256.899 161.602 261.125 165.688 266.584 168.382C266.789 168.505 266.995 168.709 267.281 168.913C266.708 169.321 266.255 169.608 265.803 169.893C261.741 172.506 258.623 175.938 256.488 180.268C253.78 185.741 253.083 191.541 253.616 197.546C254.026 202.284 255.216 206.777 257.678 210.901C261.453 217.233 267.117 221.032 274.297 221.971C278.319 222.542 282.588 222.625 286.65 221.726C291.657 220.583 296.416 218.907 300.521 215.682C301.67 214.743 302.326 213.64 302.286 212.089C302.162 208.126 302.121 204.123 302.08 200.161C302.04 197.996 303.024 196.402 304.953 195.463C305.445 195.259 306.061 195.259 306.512 194.974C306.841 194.77 307.128 194.28 307.128 193.912C307.128 193.668 306.595 193.217 306.266 193.177C305.363 193.096 304.42 193.177 303.517 193.217C300.029 193.3 296.54 193.462 293.054 193.462C289.567 193.462 286.16 193.258 282.712 193.135C282.014 193.094 281.358 193.216 281.358 194.114C281.317 194.932 281.974 194.973 282.59 195.177C283.984 195.625 285.381 195.952 286.611 196.647C288.048 197.463 289.116 198.771 289.116 200.609C289.156 205.674 289.116 210.74 289.156 215.805C289.156 216.623 288.829 217.031 288.13 217.398C284.641 219.155 280.414 218.053 277.623 215.888C274.34 213.315 272.248 209.924 270.853 206.084C268.103 198.61 267.446 190.972 268.843 183.17C269.459 179.535 270.772 176.144 273.153 173.243C274.466 171.61 276.108 170.507 278.241 169.895C280.622 169.2 282.878 168.956 285.259 169.568C289.445 170.63 292.726 173.08 295.355 176.39C296.544 177.86 297.365 179.577 298.309 181.251C298.636 181.823 298.882 182.394 299.663 182.273C300.484 182.192 300.319 181.498 300.362 180.926V180.231C300.238 175.657 300.075 171.04 299.951 166.466C299.911 166.385 299.951 166.262 299.911 166.179C299.705 165.852 299.459 165.361 299.213 165.32C298.884 165.28 298.435 165.565 298.146 165.811C297.9 166.056 297.859 166.423 297.654 166.71C296.627 168.14 295.192 167.895 293.757 167.528C291.5 166.997 289.242 166.506 286.985 165.975C286.78 165.934 286.534 165.771 286.164 165.607C294.043 157.929 298.557 148.493 302.251 138.526C302.332 138.526 302.456 138.567 302.743 138.24C302.867 138.484 303.029 138.771 303.153 139.015C304.385 141.384 305.575 143.793 306.805 146.205C309.309 151.066 311.853 155.927 314.315 160.829C315.012 162.176 314.807 162.994 313.575 163.933C313.083 164.341 312.507 164.668 311.891 164.872C310.905 165.199 309.881 165.32 308.895 165.567C308.033 165.771 307.171 167.976 307.746 168.671C307.911 168.875 308.279 168.998 308.608 169.079C309.673 169.447 310.783 169.651 311.808 170.101C313.081 170.672 313.697 171.694 313.697 173.124C313.737 180.845 313.778 188.564 313.902 196.285C313.983 201.554 314.888 206.702 317.472 211.357C321.083 217.933 326.706 221.488 334.256 221.815C336.186 221.896 338.072 221.896 340.002 221.815C341.52 221.732 343.08 221.611 344.557 221.243C349.851 219.896 353.667 216.627 356.253 211.889C358.799 207.151 359.742 202.005 359.823 196.735C359.947 189.832 359.864 182.929 359.864 176.026C359.864 172.391 361.915 169.899 365.526 169.204C366.347 169.04 366.922 168.713 366.799 167.815C366.675 166.916 365.896 166.916 365.199 167.039L365.191 167.037Z" fill="#29100A"/>
<path d="M448.303 202.376C448.057 202.293 447.521 202.701 447.315 203.027C447.069 203.311 447.069 203.759 446.945 204.168C445.422 209.745 441.883 213.572 436.16 214.712C432.581 215.444 428.834 215.241 425.13 215.404C423.566 215.485 423.525 215.364 423.525 213.815C423.525 200.461 423.566 187.066 423.525 173.712C423.484 170.699 424.759 169.518 427.93 168.867C428.712 168.704 429.658 168.744 429.618 167.686C429.534 166.506 428.506 166.791 427.765 166.791C422.578 166.831 417.434 166.954 412.248 166.994C411.507 166.994 410.725 166.872 409.983 166.791C409.983 166.711 409.943 166.588 409.943 166.506C413.4 165.611 416.282 163.736 418.998 161.538C422.126 158.974 424.555 155.919 426.241 152.296C428.587 147.288 429.658 142.037 429.453 136.5C429.247 131.289 428.178 126.322 425.337 121.885C420.44 114.23 413.154 111.258 404.634 112.969C399.572 113.987 395.373 116.593 392.204 120.746C392.039 120.99 391.958 121.235 391.833 121.478C391.711 121.438 391.587 121.356 391.506 121.275C391.422 120.949 391.259 120.583 391.216 120.258C390.97 116.633 388.83 115.087 386.032 114.68C385.456 114.6 384.879 114.518 384.303 114.518H372.49C371.79 114.558 371.008 114.477 370.884 115.495C370.76 116.472 371.543 116.553 372.201 116.676C375.618 117.287 377.923 120.583 377.881 123.638C377.758 135.73 377.758 147.863 377.881 159.955C377.881 163.211 376.441 164.026 374.054 164.923C373.684 165.045 373.272 165.126 372.861 165.208C371.091 165.614 370.926 165.86 371.051 167.692C371.091 168.424 371.462 168.71 372.203 168.832C373.109 168.955 373.973 169.118 374.795 169.444C376.278 170.095 377.265 171.113 377.265 172.863V213.252C377.265 215.002 376.443 216.184 374.879 216.834C374.013 217.16 373.109 217.28 372.203 217.486C371.545 217.648 371.091 217.934 371.091 218.626C371.132 219.318 371.627 219.521 372.244 219.521C373.889 219.521 375.537 219.481 377.182 219.481H391.053C392.658 219.481 394.265 219.561 395.869 219.481C396.24 219.481 396.57 218.952 396.94 218.666C396.611 218.3 396.281 217.892 395.912 217.568C395.706 217.405 395.377 217.528 395.089 217.486C392.703 217.242 390.974 215.45 390.974 213.212V172.905C390.974 171.602 391.467 170.584 392.579 169.932C393.401 169.444 394.348 169.118 395.254 168.915C396.077 168.752 396.859 168.671 397.313 167.815C397.437 167.571 397.973 167.449 398.301 167.449C399.74 167.408 401.223 167.368 402.705 167.449C403.117 167.489 403.487 167.897 403.899 168.14C404.269 168.384 404.638 168.669 405.051 168.832C406.081 169.198 407.151 169.401 408.138 169.85C409.291 170.379 409.867 171.397 409.908 172.66C409.991 174.981 410.113 177.259 410.113 179.58C410.113 184.343 409.989 189.067 409.948 193.83C409.908 200.221 409.908 206.653 409.948 213.047C409.989 214.716 409.289 215.897 407.768 216.508C406.821 216.874 405.792 217.119 404.805 217.323C404.063 217.445 403.571 217.769 403.571 218.543C403.611 219.358 404.228 219.481 404.888 219.521H406.206C412.05 219.521 417.853 219.398 423.698 219.601C429.583 219.764 435.47 219.845 441.355 219.276C446.252 218.787 448.227 216.508 448.763 212.15C449.093 209.626 449.093 207.061 449.215 204.537C449.256 204.129 449.339 203.683 449.174 203.315C449.009 202.949 448.681 202.5 448.311 202.379L448.303 202.376ZM403.563 162.924C400.27 163.656 396.977 163.778 393.685 163.046C391.956 162.68 391.339 161.906 391.339 160.114V144.644C391.339 139.962 391.379 135.279 391.339 130.597C391.298 126.078 393.685 123.188 397.554 121.396C400.641 119.93 403.728 120.296 406.65 122.128C410.067 124.246 412.042 127.462 413.565 131.004C415.581 135.686 416.322 140.571 415.995 145.619C415.748 149.364 414.883 152.948 412.948 156.204C410.849 159.786 407.638 161.986 403.565 162.922L403.563 162.924Z" fill="#29100A"/>
<path d="M508.639 188.636C508.313 184.081 507.296 179.769 504.977 175.865C500.665 168.624 494.237 165.331 485.857 166.266C481.341 166.795 477.355 168.707 474.1 171.96C473.124 172.936 472.228 173.953 471.131 175.133C471.091 174.563 471.049 174.238 470.928 173.913C470.561 170.496 468.892 168.747 465.476 168.299C464.174 168.137 462.914 168.097 461.611 168.097H451.848C451.197 168.097 450.668 168.299 450.628 169.031C450.587 169.681 450.912 170.008 451.564 170.13C455.672 170.985 457.706 173.548 457.706 177.736V206.288C457.706 208.891 457.665 211.494 457.706 214.097C457.746 215.642 457.176 216.903 455.753 217.595C454.857 218.043 453.883 218.367 452.947 218.694C452.663 218.817 452.296 218.857 451.97 218.897C451.36 218.979 450.913 219.386 451.117 219.996C451.238 220.321 451.767 220.688 452.133 220.688C455.469 220.648 458.847 220.445 462.181 220.525C466.493 220.608 470.845 220.933 475.157 221.055C477.68 221.095 480.242 220.933 482.765 220.892C489.354 220.852 494.928 218.452 499.687 213.897C503.186 210.521 505.626 206.534 507.091 201.939C508.474 197.627 509.003 193.195 508.637 188.64L508.639 188.636ZM491.471 211.209C489.152 214.382 485.817 215.929 482.034 216.661C479.228 217.23 476.462 217.148 473.653 216.661C471.987 216.376 471.214 215.481 471.214 213.813V194.005H471.01V184.039C471.01 180.175 472.923 177.369 476.136 175.498C480.285 173.097 484.719 173.831 488.176 177.164C491.838 180.702 493.71 185.137 494.767 189.976C495.214 191.887 495.5 193.841 495.54 195.792C495.663 201.324 494.807 206.611 491.471 211.208V211.209Z" fill="#29100A"/>
<path d="M200.754 214.264L180.037 193.915C186.763 186.051 190.812 175.91 190.812 164.837V164.819H182.727V164.837C182.727 171.324 181.04 177.423 178.077 182.736L159.865 164.847L188.679 136.543L195.339 115.119L173.559 121.686L144.745 149.99L115.932 121.69L94.1496 115.119L100.808 136.541L129.622 164.845L111.41 182.734C108.446 177.42 106.759 171.324 106.759 164.836V164.817H98.6731V164.836C98.6731 175.914 102.728 186.06 109.456 193.922L88.75 214.264L94.4677 219.881L115.183 199.534C122.833 205.822 132.592 209.722 143.267 210.054V202.111C137.222 201.885 131.539 200.267 126.538 197.584L144.742 179.702L162.946 197.584C157.946 200.267 152.264 201.885 146.219 202.111V210.054C156.899 209.724 166.66 205.82 174.31 199.526L195.031 219.881L200.75 214.264H200.752H200.754ZM175.441 124.763L186.38 121.464L151.042 156.177L147.253 152.455L175.443 124.763H175.441ZM132.11 167.325L135.888 171.06L116.657 189.949C115.445 188.643 114.329 187.252 113.313 185.787L132.11 167.323V167.325ZM103.939 134.696L100.585 123.908L170.322 192.411C168.983 193.608 167.558 194.713 166.055 195.716L103.939 134.696Z" fill="#29100A"/>
</g>
<defs>
<clipPath id="clip0_6518_1236">
<rect width="420" height="110" fill="white" transform="translate(88.75 112.5)"/>
</clipPath>
</defs>
</svg>
