<svg width="300" height="300" viewBox="0 0 300 300" fill="none" xmlns="http://www.w3.org/2000/svg">
<rect width="300" height="300" fill="#BD482D"/>
<path d="M206.002 196.764L185.285 176.415C192.011 168.551 196.06 158.41 196.06 147.337V147.319H187.975V147.337C187.975 153.824 186.288 159.923 183.325 165.236L165.113 147.347L193.927 119.043L200.587 97.6191L178.807 104.186L149.993 132.49L121.18 104.19L99.3976 97.6191L106.056 119.041L134.87 147.345L116.658 165.234C113.694 159.92 112.007 153.824 112.007 147.336V147.317H103.921V147.336C103.921 158.414 107.976 168.56 114.704 176.422L93.998 196.764L99.7157 202.381L120.431 182.034C128.081 188.322 137.84 192.222 148.515 192.554V184.611C142.47 184.385 136.787 182.767 131.786 180.084L149.99 162.202L168.194 180.084C163.194 182.767 157.512 184.385 151.467 184.611V192.554C162.147 192.224 171.908 188.32 179.558 182.026L200.279 202.381L205.998 196.764H206H206.002ZM180.689 107.263L191.628 103.964L156.29 138.677L152.501 134.955L180.691 107.263H180.689ZM137.358 149.825L141.136 153.56L121.906 172.449C120.693 171.143 119.577 169.752 118.561 168.287L137.358 149.823V149.825ZM109.187 117.196L105.833 106.408L175.57 174.911C174.231 176.108 172.806 177.213 171.304 178.216L109.187 117.196Z" fill="#29100A"/>
</svg>
